<mxfile host="app.diagrams.net" modified="2024-02-06T12:18:23.869Z" agent="Mozilla/5.0 (Macintosh; Intel Mac OS X 10_15_7) AppleWebKit/605.1.15 (KHTML, like Gecko) Version/17.1 Safari/605.1.15" etag="ZD1ma-Xo2Ugk0NB8r6aY" version="23.1.1" type="device">
  <diagram name="Page-1" id="tRS-q-lENAuMvyxQ4yos">
    <mxGraphModel dx="1207" dy="814" grid="1" gridSize="10" guides="1" tooltips="1" connect="1" arrows="1" fold="1" page="1" pageScale="1" pageWidth="827" pageHeight="1169" background="#D9F3F8" math="0" shadow="0">
      <root>
        <mxCell id="0" />
        <mxCell id="1" parent="0" />
        <mxCell id="rBZXk3uPp6g6ZCzrYI26-1" value="" style="shape=umlLifeline;perimeter=lifelinePerimeter;whiteSpace=wrap;html=1;container=1;dropTarget=0;collapsible=0;recursiveResize=0;outlineConnect=0;portConstraint=eastwest;newEdgeStyle={&quot;curved&quot;:0,&quot;rounded&quot;:0};participant=umlActor;fillColor=none;size=43;" vertex="1" parent="1">
          <mxGeometry x="250" y="107" width="20" height="613" as="geometry" />
        </mxCell>
        <mxCell id="rBZXk3uPp6g6ZCzrYI26-2" value="" style="html=1;points=[[0,0,0,0,5],[0,1,0,0,-5],[1,0,0,0,5],[1,1,0,0,-5]];perimeter=orthogonalPerimeter;outlineConnect=0;targetShapes=umlLifeline;portConstraint=eastwest;newEdgeStyle={&quot;curved&quot;:0,&quot;rounded&quot;:0};fillColor=#080606;strokeColor=#000000;" vertex="1" parent="rBZXk3uPp6g6ZCzrYI26-1">
          <mxGeometry x="5" y="73" width="10" height="497" as="geometry" />
        </mxCell>
        <mxCell id="rBZXk3uPp6g6ZCzrYI26-3" value="User&lt;br&gt;&lt;span style=&quot;font-weight: normal;&quot;&gt;(Actor)&lt;/span&gt;" style="text;align=center;fontStyle=1;verticalAlign=middle;spacingLeft=3;spacingRight=3;strokeColor=none;rotatable=0;points=[[0,0.5],[1,0.5]];portConstraint=eastwest;html=1;fontFamily=Poppins;fontSource=https%3A%2F%2Ffonts.googleapis.com%2Fcss%3Ffamily%3DPoppins;" vertex="1" parent="1">
          <mxGeometry x="220" y="70" width="80" height="26" as="geometry" />
        </mxCell>
        <mxCell id="rBZXk3uPp6g6ZCzrYI26-4" value="" style="html=1;verticalAlign=bottom;endArrow=block;curved=0;rounded=0;" edge="1" parent="1" target="rBZXk3uPp6g6ZCzrYI26-7">
          <mxGeometry x="-0.0008" relative="1" as="geometry">
            <mxPoint x="265" y="219.5" as="sourcePoint" />
            <mxPoint x="505" y="219.5" as="targetPoint" />
            <mxPoint as="offset" />
          </mxGeometry>
        </mxCell>
        <mxCell id="rBZXk3uPp6g6ZCzrYI26-5" value="sign_up_request&lt;br&gt;(email_id)" style="edgeLabel;html=1;align=center;verticalAlign=middle;resizable=0;points=[];fontFamily=Poppins;fontSource=https%3A%2F%2Ffonts.googleapis.com%2Fcss%3Ffamily%3DPoppins;labelBackgroundColor=#D9F3F8;" vertex="1" connectable="0" parent="rBZXk3uPp6g6ZCzrYI26-4">
          <mxGeometry x="-0.0366" y="-2" relative="1" as="geometry">
            <mxPoint x="8" y="-17" as="offset" />
          </mxGeometry>
        </mxCell>
        <mxCell id="rBZXk3uPp6g6ZCzrYI26-6" value="&lt;font data-font-src=&quot;https://fonts.googleapis.com/css?family=Poppins&quot; face=&quot;Poppins&quot;&gt;Sign Up Class&lt;/font&gt;" style="shape=umlLifeline;perimeter=lifelinePerimeter;whiteSpace=wrap;html=1;container=1;dropTarget=0;collapsible=0;recursiveResize=0;outlineConnect=0;portConstraint=eastwest;newEdgeStyle={&quot;curved&quot;:0,&quot;rounded&quot;:0};" vertex="1" parent="1">
          <mxGeometry x="400" y="99" width="100" height="621" as="geometry" />
        </mxCell>
        <mxCell id="rBZXk3uPp6g6ZCzrYI26-7" value="" style="html=1;points=[[0,0,0,0,5],[0,1,0,0,-5],[1,0,0,0,5],[1,1,0,0,-5]];perimeter=orthogonalPerimeter;outlineConnect=0;targetShapes=umlLifeline;portConstraint=eastwest;newEdgeStyle={&quot;curved&quot;:0,&quot;rounded&quot;:0};fillColor=#080606;strokeColor=#000000;" vertex="1" parent="rBZXk3uPp6g6ZCzrYI26-6">
          <mxGeometry x="45" y="90" width="10" height="440" as="geometry" />
        </mxCell>
        <mxCell id="rBZXk3uPp6g6ZCzrYI26-8" value="" style="endArrow=open;endSize=12;dashed=1;html=1;rounded=0;" edge="1" parent="1">
          <mxGeometry x="0.0018" width="160" relative="1" as="geometry">
            <mxPoint x="449.5" y="270" as="sourcePoint" />
            <mxPoint x="265" y="270" as="targetPoint" />
            <mxPoint as="offset" />
          </mxGeometry>
        </mxCell>
        <mxCell id="rBZXk3uPp6g6ZCzrYI26-9" value="send_verification_link&lt;br&gt;(email_id)" style="edgeLabel;html=1;align=center;verticalAlign=middle;resizable=0;points=[];fontFamily=Poppins;fontSource=https%3A%2F%2Ffonts.googleapis.com%2Fcss%3Ffamily%3DPoppins;labelBackgroundColor=#D9F3F8;" vertex="1" connectable="0" parent="1">
          <mxGeometry x="359.99655172413793" y="252" as="geometry" />
        </mxCell>
        <mxCell id="rBZXk3uPp6g6ZCzrYI26-10" value="&lt;font data-font-src=&quot;https://fonts.googleapis.com/css?family=Poppins&quot; face=&quot;Poppins&quot;&gt;Authentication&lt;br&gt;DB&lt;br&gt;&lt;/font&gt;" style="shape=umlLifeline;perimeter=lifelinePerimeter;whiteSpace=wrap;html=1;container=1;dropTarget=0;collapsible=0;recursiveResize=0;outlineConnect=0;portConstraint=eastwest;newEdgeStyle={&quot;curved&quot;:0,&quot;rounded&quot;:0};" vertex="1" parent="1">
          <mxGeometry x="595" y="290" width="100" height="430" as="geometry" />
        </mxCell>
        <mxCell id="rBZXk3uPp6g6ZCzrYI26-11" value="" style="html=1;points=[[0,0,0,0,5],[0,1,0,0,-5],[1,0,0,0,5],[1,1,0,0,-5]];perimeter=orthogonalPerimeter;outlineConnect=0;targetShapes=umlLifeline;portConstraint=eastwest;newEdgeStyle={&quot;curved&quot;:0,&quot;rounded&quot;:0};fillColor=#080606;strokeColor=#000000;" vertex="1" parent="rBZXk3uPp6g6ZCzrYI26-10">
          <mxGeometry x="45" y="110" width="10" height="110" as="geometry" />
        </mxCell>
        <mxCell id="rBZXk3uPp6g6ZCzrYI26-16" value="[Verification Successful]" style="text;align=center;fontStyle=1;verticalAlign=middle;spacingLeft=3;spacingRight=3;strokeColor=none;rotatable=0;points=[[0,0.5],[1,0.5]];portConstraint=eastwest;html=1;fontFamily=Poppins;fontSource=https%3A%2F%2Ffonts.googleapis.com%2Fcss%3Ffamily%3DPoppins;" vertex="1" parent="1">
          <mxGeometry x="110" y="386.5" width="60" height="26" as="geometry" />
        </mxCell>
        <mxCell id="rBZXk3uPp6g6ZCzrYI26-18" value="&lt;font data-font-src=&quot;https://fonts.googleapis.com/css?family=Poppins&quot; face=&quot;Poppins&quot;&gt;alt&lt;/font&gt;" style="shape=umlFrame;whiteSpace=wrap;html=1;pointerEvents=0;" vertex="1" parent="1">
          <mxGeometry x="40" y="350" width="670" height="260" as="geometry" />
        </mxCell>
        <mxCell id="rBZXk3uPp6g6ZCzrYI26-19" value="" style="html=1;verticalAlign=bottom;endArrow=block;curved=0;rounded=0;" edge="1" parent="1">
          <mxGeometry x="-0.0008" relative="1" as="geometry">
            <mxPoint x="265" y="420" as="sourcePoint" />
            <mxPoint x="445" y="420.5" as="targetPoint" />
            <mxPoint as="offset" />
          </mxGeometry>
        </mxCell>
        <mxCell id="rBZXk3uPp6g6ZCzrYI26-20" value="setup_profile&lt;br&gt;(username, email_id,&lt;br&gt;&amp;nbsp;password, profile_picture, &lt;br&gt;user_category)" style="edgeLabel;html=1;align=center;verticalAlign=middle;resizable=0;points=[];fontFamily=Poppins;fontSource=https%3A%2F%2Ffonts.googleapis.com%2Fcss%3Ffamily%3DPoppins;labelBackgroundColor=#D9F3F8;" vertex="1" connectable="0" parent="rBZXk3uPp6g6ZCzrYI26-19">
          <mxGeometry x="-0.0366" y="-2" relative="1" as="geometry">
            <mxPoint x="5" y="-31" as="offset" />
          </mxGeometry>
        </mxCell>
        <mxCell id="rBZXk3uPp6g6ZCzrYI26-22" value="" style="html=1;verticalAlign=bottom;endArrow=block;curved=0;rounded=0;" edge="1" parent="1">
          <mxGeometry x="-0.0008" relative="1" as="geometry">
            <mxPoint x="455" y="439.5" as="sourcePoint" />
            <mxPoint x="640" y="439.5" as="targetPoint" />
            <mxPoint as="offset" />
          </mxGeometry>
        </mxCell>
        <mxCell id="rBZXk3uPp6g6ZCzrYI26-23" value="create_profile&lt;br style=&quot;border-color: var(--border-color);&quot;&gt;(username, email_id,&lt;br style=&quot;border-color: var(--border-color);&quot;&gt;&amp;nbsp;password, profile_picture,&amp;nbsp;&lt;br style=&quot;border-color: var(--border-color);&quot;&gt;user_category)" style="edgeLabel;html=1;align=center;verticalAlign=middle;resizable=0;points=[];fontFamily=Poppins;fontSource=https%3A%2F%2Ffonts.googleapis.com%2Fcss%3Ffamily%3DPoppins;labelBackgroundColor=#D9F3F8;" vertex="1" connectable="0" parent="rBZXk3uPp6g6ZCzrYI26-22">
          <mxGeometry x="-0.0366" y="-2" relative="1" as="geometry">
            <mxPoint x="2" y="-31" as="offset" />
          </mxGeometry>
        </mxCell>
        <mxCell id="rBZXk3uPp6g6ZCzrYI26-24" value="" style="endArrow=open;endSize=12;dashed=1;html=1;rounded=0;" edge="1" parent="1">
          <mxGeometry x="0.0018" width="160" relative="1" as="geometry">
            <mxPoint x="639.5" y="479" as="sourcePoint" />
            <mxPoint x="455" y="479" as="targetPoint" />
            <mxPoint as="offset" />
          </mxGeometry>
        </mxCell>
        <mxCell id="rBZXk3uPp6g6ZCzrYI26-25" value="execution_sucessful" style="edgeLabel;html=1;align=center;verticalAlign=middle;resizable=0;points=[];fontFamily=Poppins;fontSource=https%3A%2F%2Ffonts.googleapis.com%2Fcss%3Ffamily%3DPoppins;labelBackgroundColor=#D9F3F8;" vertex="1" connectable="0" parent="1">
          <mxGeometry x="549.9966666666669" y="470" as="geometry" />
        </mxCell>
        <mxCell id="rBZXk3uPp6g6ZCzrYI26-27" value="" style="endArrow=open;endSize=12;dashed=1;html=1;rounded=0;" edge="1" parent="1">
          <mxGeometry x="0.0018" width="160" relative="1" as="geometry">
            <mxPoint x="444.5" y="500" as="sourcePoint" />
            <mxPoint x="260" y="500" as="targetPoint" />
            <mxPoint as="offset" />
          </mxGeometry>
        </mxCell>
        <mxCell id="rBZXk3uPp6g6ZCzrYI26-28" value="category_dashboard" style="edgeLabel;html=1;align=center;verticalAlign=middle;resizable=0;points=[];fontFamily=Poppins;fontSource=https%3A%2F%2Ffonts.googleapis.com%2Fcss%3Ffamily%3DPoppins;labelBackgroundColor=#D9F3F8;" vertex="1" connectable="0" parent="1">
          <mxGeometry x="359.9933333333335" y="489.9999999999998" as="geometry" />
        </mxCell>
        <mxCell id="rBZXk3uPp6g6ZCzrYI26-29" value="[Verification Unsuccessful]" style="text;align=center;fontStyle=1;verticalAlign=middle;spacingLeft=3;spacingRight=3;strokeColor=none;rotatable=0;points=[[0,0.5],[1,0.5]];portConstraint=eastwest;html=1;fontFamily=Poppins;fontSource=https%3A%2F%2Ffonts.googleapis.com%2Fcss%3Ffamily%3DPoppins;" vertex="1" parent="1">
          <mxGeometry x="110" y="550" width="80" height="26" as="geometry" />
        </mxCell>
        <mxCell id="rBZXk3uPp6g6ZCzrYI26-31" value="" style="html=1;verticalAlign=bottom;endArrow=block;curved=0;rounded=0;" edge="1" parent="1">
          <mxGeometry x="-0.0008" relative="1" as="geometry">
            <mxPoint x="445" y="570" as="sourcePoint" />
            <mxPoint x="265" y="570" as="targetPoint" />
            <mxPoint as="offset" />
          </mxGeometry>
        </mxCell>
        <mxCell id="rBZXk3uPp6g6ZCzrYI26-32" value="session_expired" style="edgeLabel;html=1;align=center;verticalAlign=middle;resizable=0;points=[];fontFamily=Poppins;fontSource=https%3A%2F%2Ffonts.googleapis.com%2Fcss%3Ffamily%3DPoppins;labelBackgroundColor=#D9F3F8;" vertex="1" connectable="0" parent="rBZXk3uPp6g6ZCzrYI26-31">
          <mxGeometry x="-0.0366" y="-2" relative="1" as="geometry">
            <mxPoint x="2" y="-10" as="offset" />
          </mxGeometry>
        </mxCell>
        <mxCell id="rBZXk3uPp6g6ZCzrYI26-34" value="" style="endArrow=none;dashed=1;html=1;dashPattern=12 12;strokeWidth=2;rounded=0;entryX=1.002;entryY=0.734;entryDx=0;entryDy=0;entryPerimeter=0;" edge="1" parent="1" target="rBZXk3uPp6g6ZCzrYI26-18">
          <mxGeometry width="50" height="50" relative="1" as="geometry">
            <mxPoint x="40" y="540" as="sourcePoint" />
            <mxPoint x="780" y="540" as="targetPoint" />
          </mxGeometry>
        </mxCell>
      </root>
    </mxGraphModel>
  </diagram>
</mxfile>
